<svg width="36" height="36" viewBox="0 0 36 36" fill="none" xmlns="http://www.w3.org/2000/svg">
<path d="M15.0748 3.79493L6.04479 9.68993C3.14979 11.5799 3.14979 15.8099 6.04479 17.6999L15.0748 23.5949C16.6948 24.6599 19.3648 24.6599 20.9848 23.5949L29.9698 17.6999C32.8498 15.8099 32.8498 11.5949 29.9698 9.70493L20.9848 3.80993C19.3648 2.72993 16.6948 2.72993 15.0748 3.79493Z" stroke="#7C3AED" stroke-width="1.5" stroke-linecap="round" stroke-linejoin="round"/>
<path d="M8.44518 19.6201L8.43018 26.6551C8.43018 28.5601 9.90018 30.6001 11.7002 31.2001L16.4852 32.7901C17.3102 33.0601 18.6752 33.0601 19.5152 32.7901L24.3002 31.2001C26.1002 30.6001 27.5702 28.5601 27.5702 26.6551V19.6951" stroke="#7C3AED" stroke-width="1.5" stroke-linecap="round" stroke-linejoin="round"/>
<path d="M32.1001 22.5V13.5" stroke="#7C3AED" stroke-width="1.5" stroke-linecap="round" stroke-linejoin="round"/>
</svg>
