<svg width="100" height="100" viewBox="0 0 100 100" fill="none" xmlns="http://www.w3.org/2000/svg">
<rect width="100" height="100" rx="50" fill="#E5E7EB"/>
<path d="M50 8.33331C39.0834 8.33331 30.2084 17.2083 30.2084 28.125C30.2084 38.8333 38.5834 47.5 49.5 47.875C49.8334 47.8333 50.1667 47.8333 50.4167 47.875C50.5 47.875 50.5417 47.875 50.625 47.875C50.6667 47.875 50.6667 47.875 50.7084 47.875C61.375 47.5 69.75 38.8333 69.7917 28.125C69.7917 17.2083 60.9167 8.33331 50 8.33331Z" fill="white"/>
<path d="M71.1666 58.9583C59.5416 51.2083 40.5833 51.2083 28.875 58.9583C23.5833 62.5 20.6666 67.2916 20.6666 72.4166C20.6666 77.5416 23.5833 82.2916 28.8333 85.7916C34.6666 89.7083 42.3333 91.6666 50 91.6666C57.6666 91.6666 65.3333 89.7083 71.1666 85.7916C76.4166 82.25 79.3333 77.5 79.3333 72.3333C79.2916 67.2083 76.4166 62.4583 71.1666 58.9583Z" fill="white"/>
</svg>
