<svg width="36" height="36" viewBox="0 0 36 36" fill="none" xmlns="http://www.w3.org/2000/svg">
<path d="M31.5 33H4.5C3.885 33 3.375 32.49 3.375 31.875C3.375 31.26 3.885 30.75 4.5 30.75H31.5C32.115 30.75 32.625 31.26 32.625 31.875C32.625 32.49 32.115 33 31.5 33Z" fill="white"/>
<path d="M28.5299 5.22048C25.6199 2.31048 22.7699 2.23548 19.7849 5.22048L17.9699 7.03548C17.8199 7.18548 17.7599 7.42548 17.8199 7.63548C18.9599 11.6105 22.1399 14.7905 26.1149 15.9305C26.1749 15.9455 26.2349 15.9605 26.2949 15.9605C26.4599 15.9605 26.6099 15.9005 26.7299 15.7805L28.5299 13.9655C30.0149 12.4955 30.7349 11.0705 30.7349 9.63048C30.7499 8.14548 30.0299 6.70548 28.5299 5.22048Z" fill="white"/>
<path d="M23.4155 17.2952C22.9805 17.0852 22.5605 16.8752 22.1555 16.6352C21.8255 16.4402 21.5105 16.2302 21.1955 16.0052C20.9405 15.8402 20.6405 15.6002 20.3555 15.3602C20.3255 15.3452 20.2205 15.2552 20.1005 15.1352C19.6055 14.7152 19.0505 14.1752 18.5555 13.5752C18.5105 13.5452 18.4355 13.4402 18.3305 13.3052C18.1805 13.1252 17.9255 12.8252 17.7005 12.4802C17.5205 12.2552 17.3105 11.9252 17.1155 11.5952C16.8755 11.1902 16.6655 10.7852 16.4555 10.3652C16.3666 10.1747 16.2858 9.98697 16.2107 9.80302C16.0731 9.46549 15.6367 9.36897 15.3789 9.62672L6.51048 18.4952C6.31548 18.6902 6.13548 19.0652 6.09048 19.3202L5.28048 25.0652C5.13048 26.0852 5.41548 27.0452 6.04548 27.6902C6.58548 28.2152 7.33548 28.5002 8.14548 28.5002C8.32548 28.5002 8.50548 28.4852 8.68548 28.4552L14.4455 27.6452C14.7155 27.6002 15.0905 27.4202 15.2705 27.2252L24.1318 18.3639C24.3913 18.1043 24.2928 17.6608 23.953 17.522C23.7786 17.4508 23.6009 17.3755 23.4155 17.2952Z" fill="white"/>
</svg>
