<svg width="21" height="24" viewBox="0 0 21 24" fill="none" xmlns="http://www.w3.org/2000/svg">
<path d="M9.80506 11.4617L0.0898438 22.0059C0.0907562 22.0078 0.0907561 22.0106 0.0916686 22.0125C0.390051 23.1574 1.41203 24 2.62564 24C3.11108 24 3.56641 23.8656 3.95695 23.6305L3.98798 23.6118L14.9232 17.1593L9.80506 11.4617Z" fill="#EA4335"/>
<path d="M19.6332 9.66619L19.624 9.65966L14.9029 6.86123L9.58398 11.7013L14.922 17.1582L19.6177 14.3878C20.4407 13.9324 21.0001 13.045 21.0001 12.0223C21.0001 11.0052 20.4489 10.1225 19.6332 9.66619Z" fill="#FBBC04"/>
<path d="M0.0894234 1.99331C0.0310244 2.21353 0 2.44494 0 2.68382V21.3163C0 21.5552 0.0310245 21.7866 0.0903359 22.0059L10.1386 11.7313L0.0894234 1.99331Z" fill="#4285F4"/>
<path d="M9.87666 11.9999L14.9044 6.85939L3.98201 0.383537C3.58508 0.139993 3.12154 2.57492e-05 2.62606 2.57492e-05C1.41246 2.57492e-05 0.38865 0.844499 0.0902675 1.99037C0.0902675 1.9913 0.0893555 1.99224 0.0893555 1.99317L9.87666 11.9999Z" fill="#34A853"/>
</svg>
