<svg width="36" height="36" viewBox="0 0 36 36" fill="none" xmlns="http://www.w3.org/2000/svg">
<path d="M4.5 33H31.5" stroke="#7C3AED" stroke-width="1.5" stroke-linecap="round" stroke-linejoin="round"/>
<path d="M8.39996 12.5698H6C5.175 12.5698 4.5 13.2448 4.5 14.0698V26.9998C4.5 27.8248 5.175 28.4998 6 28.4998H8.39996C9.22496 28.4998 9.89996 27.8248 9.89996 26.9998V14.0698C9.89996 13.2448 9.22496 12.5698 8.39996 12.5698Z" stroke="#7C3AED" stroke-width="1.5" stroke-linecap="round" stroke-linejoin="round"/>
<path d="M19.1998 7.78516H16.7998C15.9748 7.78516 15.2998 8.46016 15.2998 9.28516V27.0002C15.2998 27.8252 15.9748 28.5002 16.7998 28.5002H19.1998C20.0248 28.5002 20.6998 27.8252 20.6998 27.0002V9.28516C20.6998 8.46016 20.0248 7.78516 19.1998 7.78516Z" stroke="#7C3AED" stroke-width="1.5" stroke-linecap="round" stroke-linejoin="round"/>
<path d="M30.0001 3H27.6001C26.7751 3 26.1001 3.675 26.1001 4.5V27C26.1001 27.825 26.7751 28.5 27.6001 28.5H30.0001C30.8251 28.5 31.5001 27.825 31.5001 27V4.5C31.5001 3.675 30.8251 3 30.0001 3Z" stroke="#7C3AED" stroke-width="1.5" stroke-linecap="round" stroke-linejoin="round"/>
</svg>
