<svg width="48" height="48" viewBox="0 0 48 48" fill="none" xmlns="http://www.w3.org/2000/svg">
<path d="M38.6799 28.98L36.6799 25.66C36.2599 24.92 35.8799 23.52 35.8799 22.7V17.64C35.8799 12.94 33.1199 8.88 29.1399 6.98C28.0999 5.14 26.1799 4 23.9799 4C21.7999 4 19.8399 5.18 18.7999 7.04C14.8999 8.98 12.1999 13 12.1999 17.64V22.7C12.1999 23.52 11.8199 24.92 11.3999 25.64L9.37989 28.98C8.57989 30.32 8.39989 31.8 8.89989 33.16C9.37989 34.5 10.5199 35.54 11.9999 36.04C15.8799 37.36 19.9599 38 24.0399 38C28.1199 38 32.1999 37.36 36.0799 36.06C37.4799 35.6 38.5599 34.54 39.0799 33.16C39.5999 31.78 39.4599 30.26 38.6799 28.98Z" fill="#F3F4F6"/>
<path d="M29.6599 40.02C28.8199 42.34 26.5999 44 23.9999 44C22.4199 44 20.8599 43.36 19.7599 42.22C19.1199 41.62 18.6399 40.82 18.3599 40C18.6199 40.04 18.8799 40.06 19.1599 40.1C19.6199 40.16 20.0999 40.22 20.5799 40.26C21.7199 40.36 22.8799 40.42 24.0399 40.42C25.1799 40.42 26.3199 40.36 27.4399 40.26C27.8599 40.22 28.2799 40.2 28.6799 40.14C28.9999 40.1 29.3199 40.06 29.6599 40.02Z" fill="#F3F4F6"/>
</svg>
