<svg width="48" height="48" viewBox="0 0 48 48" fill="none" xmlns="http://www.w3.org/2000/svg">
<path d="M24.0402 5.81982C17.4202 5.81982 12.0402 11.1998 12.0402 17.8198V23.5998C12.0402 24.8198 11.5202 26.6798 10.9002 27.7198L8.60018 31.5398C7.18018 33.8998 8.16018 36.5198 10.7602 37.3998C19.3802 40.2798 28.6802 40.2798 37.3002 37.3998C39.7202 36.5998 40.7802 33.7398 39.4602 31.5398L37.1602 27.7198C36.5602 26.6798 36.0402 24.8198 36.0402 23.5998V17.8198C36.0402 11.2198 30.6402 5.81982 24.0402 5.81982Z" stroke="white" stroke-width="1.5" stroke-miterlimit="10" stroke-linecap="round"/>
<path d="M27.7398 6.39988C27.1198 6.21988 26.4798 6.07988 25.8198 5.99988C23.8998 5.75988 22.0598 5.89988 20.3398 6.39988C20.9198 4.91988 22.3598 3.87988 24.0398 3.87988C25.7198 3.87988 27.1598 4.91988 27.7398 6.39988Z" stroke="white" stroke-width="1.5" stroke-miterlimit="10" stroke-linecap="round" stroke-linejoin="round"/>
<path d="M30.04 38.1201C30.04 41.4201 27.34 44.1201 24.04 44.1201C22.4 44.1201 20.88 43.4401 19.8 42.3601C18.72 41.2801 18.04 39.7601 18.04 38.1201" stroke="white" stroke-width="1.5" stroke-miterlimit="10"/>
</svg>
