<svg width="36" height="36" viewBox="0 0 36 36" fill="none" xmlns="http://www.w3.org/2000/svg">
<path d="M19.335 8.82031H7.665C5.1 8.82031 3 10.9203 3 13.4853V30.5253C3 32.7003 4.56 33.6303 6.465 32.5653L12.36 29.2803C12.99 28.9353 14.01 28.9353 14.625 29.2803L20.52 32.5653C22.44 33.6153 24 32.7003 24 30.5253V13.4853C24 10.9203 21.9 8.82031 19.335 8.82031Z" fill="white"/>
<path d="M32.9998 7.665V24.705C32.9998 26.88 31.4398 27.795 29.5348 26.745L26.6398 25.125C26.3998 24.99 26.2498 24.735 26.2498 24.465V13.485C26.2498 9.675 23.1448 6.57 19.3348 6.57H13.2298C12.6748 6.57 12.2848 5.985 12.5398 5.505C13.3198 4.02 14.8798 3 16.6648 3H28.3348C30.8998 3 32.9998 5.1 32.9998 7.665Z" fill="white"/>
</svg>
